<?xml version="1.0" encoding="UTF-8"?>
<svg version="1.1" xmlns="http://www.w3.org/2000/svg" width="726" height="698">
<path d="M0 0 C239.58 0 479.16 0 726 0 C726 230.34 726 460.68 726 698 C486.42 698 246.84 698 0 698 C0 467.66 0 237.32 0 0 Z " fill="#FDFDFD" transform="translate(0,0)"/>
<path d="M0 0 C1.79649897 -0.00136032 3.59299767 -0.00314375 5.38949585 -0.00531006 C10.20382612 -0.00981081 15.0181346 -0.00812525 19.83246517 -0.00493097 C24.91673267 -0.00236726 30.00099853 -0.00475607 35.08526611 -0.00631714 C43.62162606 -0.00812793 52.15797731 -0.00576199 60.69433594 -0.00097656 C70.49860545 0.00445693 80.30285413 0.0027056 90.10712314 -0.00280297 C98.58851254 -0.00737374 107.06989575 -0.00796522 115.55128598 -0.0053643 C120.58868579 -0.00382225 125.62607589 -0.00354962 130.66347504 -0.00690079 C181.04723595 -0.03568008 226.64031583 1.80164678 272.03613281 26.12939453 C272.63619141 26.44875977 273.23625 26.768125 273.85449219 27.09716797 C286.87486211 34.09011474 298.68536947 42.69016063 310.03613281 52.12939453 C310.83253174 52.78246582 310.83253174 52.78246582 311.64501953 53.44873047 C348.06569284 83.38662667 370.82453097 126.6795884 379.72753906 172.70361328 C380.00502008 175.78400379 380.06669398 178.75369986 380.05541992 181.84350586 C380.05263535 182.83353104 380.04985077 183.82355621 380.04698181 184.84358215 C380.04340164 185.59790024 380.03982147 186.35221832 380.03613281 187.12939453 C276.51841102 188.21348525 172.99686204 189.25216422 45.08859247 189.48813939 C37.12119129 189.49885286 29.15385942 189.51995625 21.18649292 189.54541016 C11.50354342 189.57601082 1.82070555 189.59203479 -7.8622942 189.58869421 C-12.78090266 189.58722049 -17.69929599 189.59173978 -22.6178627 189.61317062 C-27.10714712 189.63240361 -31.59603036 189.63286059 -36.08532894 189.61834908 C-37.70506683 189.61630906 -39.3248304 189.62098922 -40.94452393 189.6331501 C-54.97206565 189.73180603 -63.68069202 186.8598909 -73.96386719 177.12939453 C-75.31228394 175.5128563 -76.62543194 173.86623406 -77.90136719 172.19189453 C-82.21829798 166.52808134 -87.38806685 162.50099715 -92.96386719 158.12939453 C-95.12675391 156.35773981 -97.26683792 154.5600703 -99.40136719 152.75439453 C-99.94390137 152.29589111 -100.48643555 151.8373877 -101.04541016 151.36499023 C-105.89915783 147.23519869 -110.59002798 142.93969811 -115.26855469 138.61376953 C-124.67176666 129.94646111 -134.50032452 121.70636462 -144.46386719 113.69189453 C-149.14611418 109.88502415 -153.56048225 105.85219696 -157.96533203 101.73364258 C-161.92014804 98.05155219 -165.96260939 94.49315888 -170.08886719 91.00439453 C-170.63333496 90.54307129 -171.17780273 90.08174805 -171.73876953 89.60644531 C-174.08476387 87.63699604 -176.41155889 85.83093339 -178.96386719 84.12939453 C-177.46956954 73.72534716 -168.96503676 65.41986863 -161.96386719 58.12939453 C-161.21492188 57.31728516 -160.46597656 56.50517578 -159.69433594 55.66845703 C-144.77050414 39.97739673 -125.3674953 29.29483719 -105.96386719 20.12939453 C-105.2376416 19.78489258 -104.51141602 19.44039062 -103.76318359 19.08544922 C-70.52628156 3.45219628 -36.36361049 -0.04734493 0 0 Z " fill="#0E164D" transform="translate(280.9638671875,35.87060546875)"/>
<path d="M0 0 C1.4095717 0.00436302 2.81914812 0.00737032 4.22872543 0.009161 C8.09438036 0.01787849 11.95970375 0.04542017 15.8252387 0.07603335 C20.04621824 0.10602043 24.26725488 0.11813234 28.48831177 0.13233948 C35.92737275 0.15959137 43.36631929 0.1975736 50.80529785 0.24176025 C62.08061148 0.30811912 73.35594023 0.35021827 84.63138413 0.38713729 C110.89156645 0.47335557 137.15157921 0.58962968 163.41161346 0.71220779 C170.73332951 0.74633392 178.05504954 0.77955409 185.37677002 0.81271362 C260.844892 1.15542773 336.3112215 1.59997469 411.77685547 2.30834961 C411.0175021 6.4207165 410.24585199 10.53068802 409.47216797 14.64038086 C409.25987549 15.79090942 409.04758301 16.94143799 408.82885742 18.12683105 C401.79952839 55.26402453 382.15263501 88.6669306 356.22021484 115.79760742 C355.24258709 116.82087544 354.27006323 117.84903988 353.30224609 118.8815918 C340.86151536 132.11897993 326.43042 143.11387969 310.77685547 152.30834961 C310.13216309 152.69023438 309.4874707 153.07211914 308.82324219 153.46557617 C298.34618108 159.56867012 287.36239617 164.27898697 276.08935547 168.68334961 C275.44862091 168.93637848 274.80788635 169.18940735 274.1477356 169.45010376 C250.24825369 178.83209224 225.89939563 181.79111072 200.35766602 181.68066406 C198.33424188 181.68310163 196.31081897 181.68683019 194.28739929 181.69172668 C188.87030366 181.70100449 183.45339287 181.69182417 178.03631186 181.67839456 C172.3246487 181.66694037 166.61299279 181.67119801 160.90132141 181.67314148 C151.32196084 181.67401974 141.74267168 181.66303979 132.16333008 181.64453125 C121.13360007 181.62334062 110.10397425 181.61986308 99.07422799 181.62609321 C88.39711061 181.6318122 77.72002941 181.62611338 67.04291725 181.61491966 C62.52785374 181.61031022 58.01281262 181.60938376 53.49774742 181.61150551 C48.17297104 181.61340662 42.84829884 181.60514638 37.52354622 181.58944511 C35.58473517 181.58524918 33.64591346 181.5843195 31.70709991 181.58713531 C15.71611003 181.60681569 0.16163731 180.30581257 -15.59814453 177.49584961 C-17.03359619 177.24146118 -17.03359619 177.24146118 -18.49804688 176.98193359 C-32.84708982 174.35999579 -46.76357417 171.01520744 -60.22314453 165.30834961 C-61.18994141 164.91905273 -62.15673828 164.52975586 -63.15283203 164.12866211 C-71.31389066 160.81661444 -79.26729715 157.07976906 -87.22314453 153.30834961 C-87.22314453 152.64834961 -87.22314453 151.98834961 -87.22314453 151.30834961 C-88.10228516 151.04795898 -88.98142578 150.78756836 -89.88720703 150.51928711 C-106.3899478 144.52883086 -122.30564012 128.94399447 -135.22314453 117.30834961 C-135.7479541 116.84090332 -136.27276367 116.37345703 -136.81347656 115.8918457 C-138.28086799 114.57161254 -139.72155282 113.22187451 -141.16064453 111.87084961 C-141.97404297 111.10901367 -142.78744141 110.34717773 -143.62548828 109.56225586 C-145.22314453 107.30834961 -145.22314453 107.30834961 -145.16455078 104.83569336 C-141.43253738 94.81655364 -131.95844561 89.05099304 -123.80664062 82.73217773 C-118.58978704 78.66116629 -113.59617699 74.36375224 -108.61914062 70.00488281 C-105.03815354 66.87163559 -101.42335694 63.80141031 -97.72314453 60.80834961 C-93.30644522 57.23292636 -89.00550886 53.54217314 -84.72314453 49.80834961 C-78.65149409 44.51894099 -72.47900037 39.37913997 -66.22314453 34.30834961 C-63.26031094 31.89715258 -60.30331607 29.4789283 -57.34814453 27.05834961 C-56.62191895 26.46739502 -55.89569336 25.87644043 -55.14746094 25.26757812 C-51.29907961 22.11269137 -47.71590276 18.86060968 -44.22314453 15.30834961 C-30.66349559 3.4298317 -18.0084366 -0.19833915 0 0 Z " fill="#0E164D" transform="translate(249.22314453125,464.691650390625)"/>
<path d="M0 0 C128.04 0 256.08 0 388 0 C388 52.14 388 104.28 388 158 C260.29 158 132.58 158 1 158 C8.24357111 149.54916704 15.5697155 142.20075643 24.24609375 135.25 C26.9092645 133.07413284 29.46042448 130.81821791 32 128.5 C37.17186306 123.79384973 42.56197132 119.39313396 48 115 C50.7464039 112.75612958 53.48964894 110.50850001 56.23046875 108.2578125 C58.11835937 106.71874229 60.0173356 105.19319446 61.92578125 103.6796875 C72.51716526 95.63528352 72.51716526 95.63528352 78 84 C78.31910439 73.48949931 72.60013795 65.99319436 65.703125 58.59375 C61.61991671 54.67575823 57.18518093 51.28881879 52.69140625 47.859375 C43.95126849 41.16361913 35.76714097 33.73682915 27.62109375 26.33984375 C24.4755321 23.53180884 21.27216662 20.79672449 18.0625 18.0625 C13.54820657 14.20595082 9.05082253 10.33302296 4.625 6.375 C3.73039062 5.57835937 2.83578125 4.78171875 1.9140625 3.9609375 C0 2 0 2 0 0 Z " fill="#0F174E" transform="translate(275,267)"/>
<path d="M0 0 C10.85941547 3.28640205 18.85825442 10.37648948 27 18 C28.32853317 19.15139542 29.66160433 20.29758385 31 21.4375 C34.13863858 24.16482505 37.07557641 27.04437068 40 30 C44.17767664 34.21571315 48.46972917 38.16971893 53 42 C53.99 42.84433594 54.98 43.68867188 56 44.55859375 C61.118106 48.91468935 66.262702 53.22472453 71.5 57.4375 C77.39589708 62.23488933 82.92329244 67.39605553 88.47607422 72.58056641 C94.83048596 78.49927033 101.34277225 84.15448847 108.0859375 89.625 C117.68102549 97.44512533 126.91773125 105.5932719 136 114 C141.88043381 119.40076096 147.87607702 124.58897346 154.078125 129.6171875 C163.79442052 137.54090444 173.19906118 145.78385528 182.453125 154.2421875 C187.53820397 158.86353286 192.73332831 163.29126242 198.078125 167.609375 C200.7177876 169.76909895 203.31062485 171.97145496 205.89648438 174.19458008 C211.69688884 179.17473391 217.61347602 183.77595592 224 188 C222.80033572 195.79781781 216.72728738 200.22105953 210.9375 204.8125 C210.17526123 205.42851074 209.41302246 206.04452148 208.62768555 206.67919922 C206.42370897 208.45945075 204.21227226 210.2300775 202 212 C200.10160989 213.53851718 198.20533603 215.07965476 196.3125 216.625 C195.03826172 217.66527344 195.03826172 217.66527344 193.73828125 218.7265625 C189.84874593 221.95582007 186.02277689 225.25732934 182.19287109 228.55688477 C177.77914416 232.35225472 173.2963518 236.05303591 168.77734375 239.72265625 C165.65603733 242.28203972 162.57546576 244.88589916 159.5 247.5 C155.55349519 250.85447127 151.58357928 254.17221829 147.5625 257.4375 C143.31607618 260.89274151 139.14703706 264.42697834 135 268 C129.98680512 272.31928956 124.9146268 276.55097119 119.77734375 280.72265625 C116.65603733 283.28203972 113.57546576 285.88589916 110.5 288.5 C106.55349519 291.85447127 102.58357928 295.17221829 98.5625 298.4375 C94.31607618 301.89274151 90.14703706 305.42697834 86 309 C80.98680512 313.31928956 75.9146268 317.55097119 70.77734375 321.72265625 C67.09161247 324.74485223 63.46255178 327.83147207 59.83129883 330.91870117 C56.46129684 333.77859495 53.05964744 336.59262982 49.625 339.375 C45.21892017 342.96134405 40.91065446 346.64673621 36.625 350.375 C8.22079934 375.059903 8.22079934 375.059903 3.52905273 374.93334961 C1 374 1 374 -0.48217773 371.48168945 C-0.87864502 370.37011475 -1.2751123 369.25854004 -1.68359375 368.11328125 C-2.133396 366.87610352 -2.58319824 365.63892578 -3.04663086 364.36425781 C-3.51170843 363.01417205 -3.97529823 361.66357299 -4.4375 360.3125 C-4.92333095 358.93176244 -5.40974472 357.55122981 -5.89672852 356.17089844 C-16.52894199 325.7394558 -21.14312896 295.5915815 -21.16113281 263.39379883 C-21.1657712 261.44394336 -21.17079721 259.49408879 -21.17617798 257.54423523 C-21.18921003 252.27896473 -21.19572942 247.01370694 -21.20018864 241.74842286 C-21.20313571 238.44502424 -21.20724357 235.14162896 -21.21169281 231.83823204 C-21.22534665 221.46277917 -21.23502231 211.0873341 -21.2388947 200.71187288 C-21.24336336 188.81009658 -21.26086469 176.90843582 -21.2898953 165.00669461 C-21.31165529 155.75854193 -21.32160663 146.51042141 -21.32293582 137.26224345 C-21.32397413 131.76185337 -21.32967005 126.26157218 -21.34775543 120.76120949 C-21.62174213 32.43261319 -21.62174213 32.43261319 0 0 Z " fill="#0F164D" transform="translate(75,156)"/>
</svg>
